<svg xmlns="http://www.w3.org/2000/svg" width="230" height="60" viewBox="0 0 230 60"><g transform="translate(-137 -3311)"><path d="M5,0H225a5,5,0,0,1,5,5V55a5,5,0,0,1-5,5H5a5,5,0,0,1-5-5V5A5,5,0,0,1,5,0Z" transform="translate(137 3311)" fill="#40af6c"/><g transform="translate(167.358 3324.734)"><text transform="translate(49.642 23.275)" fill="#fff" font-size="20" font-family="Poppins-Medium, Poppins" font-weight="500"><tspan x="0" y="0">Google Play</tspan></text><path d="M20.69,14.769,6.778.819l17.7,10.161L20.69,14.769ZM3.147,0A2.45,2.45,0,0,0,1.779,2.225V30.043a2.45,2.45,0,0,0,1.368,2.225L19.322,16.131Zm26.8,14.221-3.713-2.15L22.1,16.137,26.237,20.2l3.788-2.15a2.529,2.529,0,0,0-.076-3.833ZM6.778,31.455l17.7-10.161L20.69,17.505Z" transform="translate(-1.779)" fill="#fff"/></g></g></svg>