<svg xmlns="http://www.w3.org/2000/svg" width="18.599" height="24.013" viewBox="0 0 18.599 24.013"><g transform="translate(3.72)" fill="none" stroke="#bb8eff" stroke-width="3"><rect width="11.16" height="11.16" rx="5.58" stroke="none"/><rect x="1.5" y="1.5" width="8.16" height="8.16" rx="4.08" fill="none"/></g><g transform="translate(0 13.949)" fill="none"><path d="M4.65,0h9.3A4.65,4.65,0,0,1,18.6,4.65c0,7.218-18.6,7.218-18.6,0A4.65,4.65,0,0,1,4.65,0Z" stroke="none"/><path d="M 4.64980411529541 2.999995231628418 C 3.740103721618652 2.999995231628418 3.000003814697266 3.740095138549805 3.000003814697266 4.649805545806885 C 3.000003814697266 4.865255355834961 3.057184219360352 5.029205322265625 3.19737434387207 5.215725421905518 C 3.347164154052734 5.415035247802734 3.657413482666016 5.720755577087402 4.284793853759766 6.045385360717773 C 5.53486442565918 6.692205429077148 7.362693786621094 7.063175678253174 9.299613952636719 7.063175678253174 C 11.23653411865234 7.063175678253174 13.06436347961426 6.692205429077148 14.31443405151367 6.045385360717773 C 14.94181442260742 5.720755577087402 15.2520637512207 5.415035247802734 15.40185356140137 5.215725421905518 C 15.54204368591309 5.029205322265625 15.59922409057617 4.865245342254639 15.59922409057617 4.649805545806885 C 15.59922409057617 3.740095138549805 14.85912418365479 2.999995231628418 13.94942378997803 2.999995231628418 L 4.64980411529541 2.999995231628418 M 4.64980411529541 -4.76837158203125e-06 L 13.94942378997803 -4.76837158203125e-06 C 16.51743316650391 -4.76837158203125e-06 18.59922409057617 2.081785202026367 18.59922409057617 4.649805545806885 C 18.59922409057617 8.258720397949219 13.94941902160645 10.06317806243896 9.299613952636719 10.06317806243896 C 4.649808883666992 10.06317806243896 3.814697265625e-06 8.258720397949219 3.814697265625e-06 4.649805545806885 C 3.814697265625e-06 2.081785202026367 2.081783294677734 -4.76837158203125e-06 4.64980411529541 -4.76837158203125e-06 Z" stroke="none" fill="#bb8eff"/></g></svg>