<svg xmlns="http://www.w3.org/2000/svg" width="43" height="43" viewBox="0 0 43 43"><g transform="translate(-934 -231.252)"><path d="M21.5,0A21.5,21.5,0,1,1,0,21.5,21.5,21.5,0,0,1,21.5,0Z" transform="translate(934 231.252)" fill="#f6f6f6"/><ellipse cx="4.391" cy="4.391" rx="4.391" ry="4.391" transform="translate(951.785 248.319)" fill="none" stroke="#767791" stroke-linecap="round" stroke-miterlimit="10" stroke-width="3"/><path d="M206.128,566.785h0a2.562,2.562,0,0,0,3.517,1.457h0a2.564,2.564,0,0,1,3.418,3.418h0a2.567,2.567,0,0,0,1.457,3.517h0a2.564,2.564,0,0,1,0,4.832h0a2.562,2.562,0,0,0-1.457,3.517h0a2.564,2.564,0,0,1-3.418,3.418h0a2.567,2.567,0,0,0-3.517,1.457h0a2.564,2.564,0,0,1-4.832,0h0a2.562,2.562,0,0,0-3.517-1.457h0a2.564,2.564,0,0,1-3.418-3.418h0a2.567,2.567,0,0,0-1.457-3.517h0a2.564,2.564,0,0,1,0-4.832h0a2.562,2.562,0,0,0,1.457-3.517h0a2.564,2.564,0,0,1,3.418-3.418h0a2.567,2.567,0,0,0,3.517-1.457h0A2.564,2.564,0,0,1,206.128,566.785Z" transform="translate(752.257 -325.252)" fill="none" stroke="#767791" stroke-linecap="round" stroke-miterlimit="10" stroke-width="3"/></g></svg>