<svg id="Group_6426" data-name="Group 6426" xmlns="http://www.w3.org/2000/svg" width="33" height="33" viewBox="0 0 33 33">
  <rect id="Rectangle_412" data-name="Rectangle 412" width="33" height="33" rx="8" fill="#ceedaa"/>
  <g id="Group_6425" data-name="Group 6425" transform="translate(10.07 6.778)">
    <path id="Icon_awesome-mobile-alt" data-name="Icon awesome-mobile-alt" d="M10.561,0h-8.7A1.864,1.864,0,0,0,0,1.864V18.016A1.864,1.864,0,0,0,1.864,19.88h8.7a1.864,1.864,0,0,0,1.864-1.864V1.864A1.864,1.864,0,0,0,10.561,0ZM6.212,18.637a1.242,1.242,0,1,1,1.242-1.242A1.241,1.241,0,0,1,6.212,18.637Zm4.349-4.193a.467.467,0,0,1-.466.466H2.33a.467.467,0,0,1-.466-.466V2.33a.467.467,0,0,1,.466-.466H10.1a.467.467,0,0,1,.466.466Z" fill="#434547"/>
    <path id="Icon_ionic-md-notifications-outline" data-name="Icon ionic-md-notifications-outline" d="M8.754,4.656a2.556,2.556,0,0,1,.423.079A1.8,1.8,0,0,1,10.55,6.5V8.757l.165.166.138.138H6.62l.138-.138.165-.166V6.5A1.8,1.8,0,0,1,8.3,4.735a3.13,3.13,0,0,1,.423-.079m.018-1.281a.541.541,0,0,0-.549.552v.257A2.384,2.384,0,0,0,6.357,6.5V8.523l-.732.735v.368h6.223V9.259l-.732-.735V6.5a2.384,2.384,0,0,0-1.83-2.317V3.927a.541.541,0,0,0-.549-.552Zm.732,6.619H8a.732.732,0,1,0,1.464,0Z" transform="translate(-2.524 1.031)" fill="#434547"/>
  </g>
</svg>
