<svg xmlns="http://www.w3.org/2000/svg" width="33" height="33" viewBox="0 0 33 33">
  <g id="Group_642ุณ6" data-name="Group 642ุณ6" transform="translate(2)">
    <rect id="Rectangle_412" data-name="Rectangle 412" width="33" height="33" rx="8" transform="translate(-2)" fill="#ffcb3d"/>
    <path id="Icon_zocial-email" data-name="Icon zocial-email" d="M.072,16.951V5.32q0-.02.061-.384l6.845,5.856L.153,17.355a1.711,1.711,0,0,1-.081-.4ZM.981,4.129a.87.87,0,0,1,.343-.061H19.76a1.143,1.143,0,0,1,.363.061L13.258,10l-.909.727-1.8,1.474-1.8-1.474L7.846,10ZM1,18.142l6.886-6.6L10.552,13.7l2.665-2.161,6.886,6.6a.97.97,0,0,1-.343.061H1.324A.915.915,0,0,1,1,18.142Zm13.125-7.35,6.825-5.856a1.205,1.205,0,0,1,.061.384V16.951a1.548,1.548,0,0,1-.061.4Z" transform="translate(3.958 5.365)" fill="#434547"/>
  </g>
</svg>
