<svg xmlns="http://www.w3.org/2000/svg" width="33" height="33" viewBox="0 0 33 33">
  <g id="Group_64سش26" data-name="Group 64سش26" transform="translate(1 1)">
    <rect id="Rectangle_412" data-name="Rectangle 412" width="33" height="33" rx="8" transform="translate(-1 -1)" fill="#ffd2dd"/>
    <path id="Icon_awesome-sms" data-name="Icon awesome-sms" d="M11.306,2.25C5.061,2.25,0,6.362,0,11.436a8.153,8.153,0,0,0,2.517,5.772A11.235,11.235,0,0,1,.1,21.439a.351.351,0,0,0-.066.384.346.346,0,0,0,.322.212,10.1,10.1,0,0,0,6.209-2.27,13.469,13.469,0,0,0,4.743.857c6.245,0,11.306-4.112,11.306-9.186S17.551,2.25,11.306,2.25ZM5.662,14.263H5.123a.354.354,0,0,1-.353-.353V13.2a.354.354,0,0,1,.353-.353h.543c.265,0,.459-.155.459-.291a.234.234,0,0,0-.093-.168l-.967-.83a1.633,1.633,0,0,1-.587-1.241,1.8,1.8,0,0,1,1.873-1.7H6.89a.354.354,0,0,1,.353.353v.707a.354.354,0,0,1-.353.353H6.346c-.265,0-.459.155-.459.291a.234.234,0,0,0,.093.168l.967.83a1.633,1.633,0,0,1,.587,1.241A1.793,1.793,0,0,1,5.662,14.263Zm8.471-.353a.354.354,0,0,1-.353.353h-.707a.354.354,0,0,1-.353-.353V10.9l-1.1,2.464a.353.353,0,0,1-.632,0L9.893,10.9v3.012a.354.354,0,0,1-.353.353H8.833a.354.354,0,0,1-.353-.353V9.316a.709.709,0,0,1,.707-.707h.707A.7.7,0,0,1,10.524,9l.782,1.563L12.088,9a.708.708,0,0,1,.632-.389h.707a.709.709,0,0,1,.707.707Zm2.133.353h-.543a.354.354,0,0,1-.353-.353V13.2a.354.354,0,0,1,.353-.353h.543c.265,0,.459-.155.459-.291a.234.234,0,0,0-.093-.168l-.967-.83a1.633,1.633,0,0,1-.587-1.241,1.8,1.8,0,0,1,1.873-1.7h.539a.354.354,0,0,1,.353.353v.707a.354.354,0,0,1-.353.353h-.543c-.265,0-.459.155-.459.291a.234.234,0,0,0,.093.168l.967.83a1.633,1.633,0,0,1,.587,1.241A1.789,1.789,0,0,1,16.266,14.263Z" transform="translate(4.194 3.528)" fill="#434547"/>
  </g>
</svg>
